<?xml version="1.0" encoding="utf-8"?>
<!-- Generator: Adobe Illustrator 25.2.0, SVG Export Plug-In . SVG Version: 6.00 Build 0)  -->
<svg version="1.1" id="Layer_1" xmlns="http://www.w3.org/2000/svg" xmlns:xlink="http://www.w3.org/1999/xlink" x="0px" y="0px"
	 viewBox="0 0 255.9 184" style="enable-background:new 0 0 255.9 184;" xml:space="preserve">
<g>
	<path d="M159.9,176c-19.1,0-33.6-14.2-39-20.2c-0.1-0.1-0.2-0.3-0.3-0.5c-4.1,0.5-8.3,0.7-12.7,0.7c-4.4,0-8.6-0.2-12.7-0.6
		c-0.1,0.1-0.2,0.2-0.3,0.4c-5.4,6.1-19.9,20.2-39,20.2c-2.2,0-4,1.8-4,4s1.8,4,4,4h104c2.2,0,4-1.8,4-4S162.2,176,159.9,176z"/>
	<path d="M152.1,60h0.2l0.1,0c0.1,0,0.1,0,0.2,0c-8-10.2-19.6-17.1-32.4-19.3l14.1-14.1c1.6-1.6,1.6-4.1,0-5.7L114.4,1.2
		c-1.6-1.6-4.1-1.6-5.7,0L89,21c-1.6,1.6-1.6,4.1,0,5.7l14.1,14.1C90.2,42.9,78.6,49.8,70.6,60h81.3L152.1,60z"/>
	<path d="M255.9,51.4c-0.3-1.9-2-3.4-3.9-3.4h-36c-0.9,0-1.8,0.3-2.5,0.8c-23.7,18.4-56,19.2-60.8,19.2c-0.4,0-0.6,0-0.6,0
		c0,0-0.1,0-0.1,0h-84c-8.5,0-15.9,4-20.9,10.5c-1.3-9.3-4.3-19.5-10.6-25.4c-4.6-4.3-10.3-6-17-5.1C8.9,49.5,2,56,0.4,65.9
		c-2.6,15.7,9,39,32.8,50.9c5,2.5,7.7,7.9,6.6,13.1c-0.6,2.8-2.2,5-4.7,6.8c-1.8,1.3-2.2,3.8-1,5.6c0.8,1.1,2,1.7,3.3,1.7
		c0.8,0,1.6-0.2,2.3-0.7c4.2-3,6.9-6.9,7.9-11.6c0.6-2.8,0.6-5.6,0-8.3c2.3,3.4,5.2,6.5,8.6,9.3c12,10,30,15.3,51.9,15.3
		c59.9,0,101.4-50.4,123.7-77.4c1.2-1.4,2.3-2.8,3.3-4c4.4-5.2,14.6-9.6,18.2-10.8C255.1,55.2,256.2,53.3,255.9,51.4z M36.7,109.7
		C16.5,99.6,6.2,79.7,8.2,67.2c1.1-6.5,5.2-10.3,12.3-11.2c4.2-0.6,7.7,0.4,10.4,3c9.2,8.6,9.6,32.3,9,40.8c0,0.6,0,1.1,0.2,1.6
		c0.1,4.5,1,8.8,2.5,12.9C41.1,112.5,39,110.9,36.7,109.7z M107.9,132c-18.1,0-32.5-4-41.6-11.6c-8.8-7.4-10.1-15.9-10.1-20.3
		c0-2.2,1.8-4,4-4s4,1.8,4,4c0,3,0.9,8.9,7.3,14.2c7.6,6.4,20.3,9.7,36.5,9.7c2.2,0,4,1.8,4,4C111.9,130.2,110.2,132,107.9,132z"/>
</g>
</svg>
